<svg id="Layer_1" height="512" viewBox="0 0 512 512" width="512" xmlns="http://www.w3.org/2000/svg" xmlns:xlink="http://www.w3.org/1999/xlink" data-name="Layer 1"><linearGradient id="linear-gradient" gradientUnits="userSpaceOnUse" x1="146.152" x2="432.769" y1="146.167" y2="432.784"><stop offset="0" stop-color="#1d1d1b"/><stop offset=".369" stop-color="#1d1d1b" stop-opacity=".856"/><stop offset=".75" stop-color="#1d1d1b" stop-opacity=".429"/><stop offset="1" stop-color="#1d1d1b" stop-opacity="0"/></linearGradient><circle cx="256" cy="256" fill="#27a737" r="250"/><path d="m506 256a251.684 251.684 0 0 0 -3.251-40.311l-134.822-134.822h-71.546l-29.468 56.323a20.812 20.812 0 0 1 -18.435 11.086h-104.435v89.445l46.09 46.144-46.09 88.061v59.207l71.609 71.609a251.684 251.684 0 0 0 40.348 3.258c138.071 0 250-111.929 250-250z" fill="url(#linear-gradient)" opacity=".49"/><path d="m367.927 80.867.03 58.968-64.084 122.432a8.248 8.248 0 0 0 7.417 12.027h56.652v89.445h-104.556a20.78 20.78 0 0 0 -18.435 11.071l-29.484 56.323h-71.424v-59.207l63.947-122.178a8.247 8.247 0 0 0 -7.416-12.027h-56.531v-89.445h104.434a20.812 20.812 0 0 0 18.436-11.086l29.468-56.323z" fill="#fff" fill-rule="evenodd"/></svg>