<?xml version="1.0"?>
<svg xmlns="http://www.w3.org/2000/svg" xmlns:xlink="http://www.w3.org/1999/xlink" xmlns:svgjs="http://svgjs.com/svgjs" version="1.1" width="512" height="512" x="0" y="0" viewBox="0 0 512 512" style="enable-background:new 0 0 512 512" xml:space="preserve" class=""><g><g xmlns="http://www.w3.org/2000/svg"><circle cx="256" cy="256" fill="#fca0b2" r="256" data-original="#fca0b2" class=""/><path d="m503.888 191.827-110.959-110.959-38.433 38.433 38.865 38.865-94.579 94.579-143.877-143.876-38.433 38.433 66.706 66.706-13.407 13.407 90.587 90.587-102.769 102.768 91.121 91.121c2.422.068 4.851.11 7.29.11 141.385 0 256-114.615 256-256 0-22.163-2.818-43.666-8.112-64.174z" fill="#fb7a94" data-original="#fb7a94"/><path d="m216.946 251.537c-3.003-68.06-39.672-136.078-97.872-170.668-25.749 73.627-1.087 162.871 55.388 216.697l-11.76 46.04c-13.652 11.509-21.702 25.644-21.702 40.926 0 38.66 51.487 70 115 70l16.25-99.474-16.25-109.684c-15.086 0-28.185 2.59-39.054 6.163z" fill="#463e3e" data-original="#ffffff" class=""/><path d="m295.054 251.537c3.003-68.06 39.672-136.078 97.872-170.668 25.749 73.627 1.087 162.871-55.388 216.697l11.76 46.04c13.652 11.509 21.702 25.644 21.702 40.926 0 38.66-51.487 70-115 70v-209.158c15.086 0 28.185 2.59 39.054 6.163z" fill="#6a5b5b" data-original="#e9edf5" class=""/><path d="m139.822 137.872c41.59 24.718 62.357 81.776 46.386 127.444-41.59-24.717-62.358-81.775-46.386-127.444z" fill="#6a5b5b" data-original="#e9edf5" class=""/><path d="m372.178 137.872c-41.59 24.718-62.357 81.776-46.386 127.444 41.59-24.717 62.358-81.775 46.386-127.444z" fill="#8e7878" data-original="#cdd2e1" class=""/><path d="m235.259 375.634 20.741 22.03 5.588-12.851-5.588-9.179z" fill="#fca0b2" data-original="#fca0b2" class=""/><path d="m276.741 375.634-20.741 22.03v-22.03z" fill="#fb7a94" data-original="#fb7a94"/><circle cx="212.765" cy="337.151" fill="#000000" r="15" data-original="#555a65" class=""/><circle cx="299.235" cy="337.151" fill="#000000" r="15" data-original="#333940" class=""/></g></g></svg>
